<?xml version="1.0" standalone="no"?>
<!DOCTYPE svg PUBLIC "-//W3C//DTD SVG 20010904//EN"
 "http://www.w3.org/TR/2001/REC-SVG-20010904/DTD/svg10.dtd">
<svg version="1.0" xmlns="http://www.w3.org/2000/svg"
 width="260.000000pt" height="260.000000pt" viewBox="0 0 260.000000 260.000000"
 preserveAspectRatio="xMidYMid meet">
<metadata>
Created by potrace 1.14, written by Peter Selinger 2001-2017
</metadata>
<g transform="translate(0.000000,260.000000) scale(0.100000,-0.100000)"
fill="#000000" stroke="none">
<path d="M2464 2579 c-3 -6 -15 -9 -25 -6 -11 3 -19 1 -19 -4 0 -5 -5 -9 -11
-9 -5 0 -7 6 -3 13 6 9 5 9 -8 0 -8 -7 -18 -10 -21 -6 -4 3 -7 2 -7 -4 0 -5
-13 -9 -30 -8 -16 1 -30 -2 -30 -8 0 -5 -7 -7 -15 -4 -8 4 -17 2 -21 -4 -3 -6
-12 -8 -20 -5 -8 3 -14 0 -14 -7 0 -8 -4 -6 -10 3 -7 11 -10 11 -10 2 0 -7 -4
-10 -10 -7 -5 3 -10 2 -10 -4 0 -5 -10 -8 -22 -6 -12 3 -27 -3 -35 -13 -14
-16 -14 -16 -9 3 6 20 6 20 -9 1 -8 -11 -15 -16 -15 -12 0 5 -8 2 -17 -5 -11
-10 -14 -10 -9 -1 4 6 3 12 -3 12 -5 0 -11 -4 -13 -9 -1 -6 -19 -13 -38 -16
-19 -3 -37 -9 -40 -13 -3 -4 -18 -8 -35 -10 -16 -1 -36 -3 -42 -4 -7 -1 -13
-6 -13 -11 0 -6 -3 -8 -6 -5 -3 3 -28 0 -56 -8 -28 -7 -55 -11 -59 -8 -4 2 -9
-1 -11 -6 -2 -6 -14 -12 -28 -12 -14 -1 -28 -7 -32 -13 -5 -6 -8 -4 -8 5 0 11
-2 12 -8 3 -4 -7 -22 -13 -40 -15 -18 -1 -32 -6 -32 -10 0 -4 -7 -4 -17 -1
-12 5 -14 3 -8 -8 7 -12 6 -12 -7 -1 -12 9 -18 10 -23 2 -5 -7 -11 -8 -19 -1
-7 6 -17 6 -26 1 -10 -6 -21 -3 -34 8 -11 9 -16 11 -12 4 4 -7 -8 -4 -28 8
-20 11 -36 16 -36 12 0 -4 -4 -1 -9 6 -4 7 -18 14 -29 15 -12 1 -22 5 -22 10
0 4 -4 5 -10 2 -5 -3 -10 0 -10 7 0 9 -3 9 -10 -2 -5 -8 -10 -10 -10 -4 0 6
-21 10 -50 10 -28 0 -50 -4 -50 -8 0 -4 -8 -5 -18 -3 -10 2 -25 0 -32 -5 -7
-5 -25 -4 -39 2 -39 15 -71 17 -71 4 0 -6 -7 -2 -16 9 -8 11 -22 19 -30 17 -8
-2 -14 2 -14 8 0 6 -5 8 -12 4 -19 -12 -48 -12 -48 -1 0 6 -8 0 -19 -11 -10
-12 -24 -22 -31 -22 -9 0 -10 -3 -1 -13 9 -11 3 -16 -29 -26 -22 -7 -38 -16
-36 -20 3 -4 -6 -14 -19 -21 -14 -7 -25 -20 -25 -28 0 -9 -3 -13 -6 -9 -3 3
-17 -6 -31 -21 -13 -15 -20 -28 -14 -30 6 -2 11 -10 11 -18 0 -8 5 -14 11 -14
5 0 7 5 4 11 -4 6 2 5 13 -2 12 -7 18 -17 16 -21 -3 -4 0 -8 5 -8 6 0 11 -8
11 -19 0 -21 -25 -46 -37 -38 -13 8 -14 -35 -1 -50 9 -11 14 -11 26 -1 13 11
14 11 7 -2 -8 -13 -7 -13 8 -1 15 12 17 11 17 -8 0 -11 5 -21 10 -21 19 0 10
-38 -10 -43 -11 -3 -20 -13 -20 -22 0 -9 -4 -14 -8 -11 -5 3 -9 -1 -9 -9 0 -8
4 -12 8 -9 4 2 12 -3 17 -13 8 -14 13 -15 26 -4 13 11 18 7 32 -28 9 -22 19
-40 22 -39 21 2 31 -4 37 -22 4 -12 11 -17 18 -13 7 4 4 -6 -7 -21 -10 -16
-13 -26 -8 -22 6 3 13 2 17 -4 3 -5 1 -10 -6 -10 -8 0 -8 -4 -1 -13 7 -8 7
-18 2 -27 -6 -9 -4 -20 3 -29 10 -12 9 -13 -2 -7 -10 7 -12 3 -6 -14 5 -17 4
-21 -6 -15 -11 6 -12 5 -2 -5 10 -11 10 -17 0 -29 -10 -12 -9 -13 1 -7 11 7
12 4 4 -11 -6 -10 -9 -31 -8 -46 2 -19 -1 -27 -13 -27 -9 0 -12 -3 -6 -8 13
-9 17 -32 6 -32 -4 0 -8 -9 -7 -20 0 -11 -2 -18 -5 -17 -12 4 -39 -25 -32 -36
3 -6 1 -7 -6 -3 -12 8 -44 -18 -34 -28 4 -3 -1 -6 -9 -6 -9 0 -19 -6 -21 -12
-4 -9 -6 -9 -6 1 -1 11 -5 10 -16 -5 -8 -11 -14 -14 -15 -6 0 10 -5 10 -20 2
-11 -6 -20 -8 -20 -4 0 3 -6 2 -12 -3 -7 -6 -21 -9 -31 -8 -9 2 -17 -1 -17 -7
0 -5 -9 -7 -20 -3 -15 5 -18 3 -14 -10 5 -13 2 -14 -17 -7 -28 11 -52 5 -42
-11 4 -6 0 -8 -10 -4 -9 3 -19 2 -22 -4 -4 -5 -11 -7 -16 -4 -5 4 -9 1 -9 -4
0 -6 -3 -10 -7 -10 -5 1 -24 -4 -43 -12 -19 -7 -38 -12 -42 -11 -5 1 -8 -3 -8
-8 0 -6 -6 -10 -12 -8 -7 2 -29 -9 -49 -25 -20 -15 -43 -27 -52 -27 -9 0 -19
-9 -22 -20 -4 -11 -11 -18 -16 -15 -5 4 -20 -6 -34 -21 -14 -15 -25 -24 -25
-21 0 3 -11 -5 -25 -19 -14 -14 -25 -27 -25 -29 0 -3 -16 -21 -36 -41 -20 -21
-33 -43 -30 -51 3 -8 2 -12 -2 -9 -4 3 -14 -4 -21 -16 -10 -16 -10 -19 1 -12
7 4 2 -5 -12 -21 -14 -16 -19 -25 -12 -21 6 4 12 2 12 -3 0 -6 -5 -11 -12 -11
-6 0 -8 -3 -5 -6 3 -4 1 -16 -5 -28 -14 -25 -16 -55 -5 -79 5 -11 3 -17 -4
-17 -8 0 -9 -4 0 -13 8 -10 7 -17 -2 -27 -9 -10 -9 -11 1 -6 8 5 12 0 12 -13
0 -11 5 -23 11 -26 6 -4 8 -13 5 -21 -3 -7 -1 -16 5 -20 6 -3 8 -12 5 -19 -3
-8 2 -19 10 -25 8 -7 14 -16 14 -21 0 -10 22 -38 58 -75 12 -13 22 -27 21 -31
-1 -5 9 -14 22 -20 13 -7 20 -13 16 -13 -9 0 30 -38 63 -60 12 -8 33 -23 45
-32 13 -10 28 -18 34 -18 6 0 11 -4 11 -10 0 -5 6 -10 13 -10 8 0 22 -9 32
-20 10 -11 24 -20 32 -20 7 0 13 -4 13 -8 0 -4 14 -16 30 -25 17 -10 30 -15
30 -12 0 3 10 -3 22 -15 12 -11 26 -20 30 -20 5 0 21 -8 35 -17 15 -10 31 -18
37 -19 6 0 17 -2 24 -2 7 -1 10 -7 6 -14 -4 -6 -3 -8 3 -5 5 3 21 0 36 -8 15
-8 27 -11 27 -8 0 3 7 0 16 -8 14 -11 27 -15 72 -21 6 -1 12 -6 12 -11 0 -6 3
-7 7 -4 3 4 13 1 21 -6 13 -10 14 -9 7 3 -7 12 -6 13 7 3 8 -7 18 -10 21 -6 4
3 7 1 7 -7 0 -10 3 -10 15 0 12 10 15 9 15 -6 0 -13 3 -15 11 -7 9 9 17 8 34
-3 16 -10 25 -12 30 -5 3 6 11 11 16 11 6 0 7 -5 4 -10 -4 -6 7 -11 24 -11 40
-2 43 -3 60 -13 10 -7 12 -6 6 4 -6 10 -4 11 6 4 8 -4 24 -9 37 -10 12 0 25
-4 28 -7 4 -4 15 -2 25 3 13 8 20 6 28 -7 9 -16 10 -16 11 -1 0 12 6 15 23 10
12 -3 25 -10 29 -16 5 -7 8 -5 8 5 0 14 6 16 35 9 24 -5 35 -4 35 4 0 6 5 4
10 -4 7 -11 10 -11 10 -2 0 9 5 10 19 2 12 -6 22 -6 26 -1 3 6 14 8 25 6 11
-2 20 1 20 6 0 6 4 7 10 4 5 -3 18 -1 29 5 14 7 22 7 26 -1 5 -7 15 -5 31 6
14 9 24 11 24 5 0 -7 6 -8 18 -1 18 10 24 11 48 11 8 0 13 4 10 9 -7 11 13 9
31 -2 6 -4 15 -2 20 5 8 12 25 18 66 21 9 1 17 7 17 14 0 10 5 11 20 3 15 -8
23 -6 39 11 11 12 24 18 30 14 6 -3 11 -1 11 5 0 6 5 8 10 5 6 -3 10 -2 10 4
0 6 7 7 17 4 11 -4 14 -3 9 5 -5 8 0 12 13 12 12 0 21 5 21 12 0 6 3 8 6 5 10
-9 46 12 39 23 -3 6 0 7 8 4 8 -3 21 2 30 10 9 9 20 16 26 16 6 0 11 5 11 11
0 5 4 8 8 5 5 -3 20 6 35 20 14 13 31 24 36 24 6 0 16 9 23 20 7 11 19 20 26
20 7 0 15 7 18 15 4 8 10 13 14 10 4 -3 11 2 14 11 3 8 10 13 15 9 6 -3 15 4
21 15 6 11 14 19 18 17 4 -2 25 14 47 36 22 22 34 36 26 32 -9 -5 -12 -4 -7 3
4 7 13 12 21 12 7 0 17 9 20 20 4 11 11 17 17 14 7 -5 9 -1 5 9 -3 10 -2 17 4
17 5 0 14 11 21 25 6 13 15 22 20 19 5 -3 8 -2 6 3 -4 16 14 73 23 73 6 0 8 4
4 9 -3 5 -1 12 4 16 5 3 8 14 6 25 -2 11 0 20 5 20 4 0 6 10 2 22 -4 16 -2 19
9 13 11 -7 11 -5 -1 10 -12 15 -12 17 -1 10 11 -6 13 -4 8 8 -4 10 -1 17 5 17
7 0 3 7 -8 16 -10 8 -13 12 -6 9 10 -5 13 -1 10 16 -2 13 -7 27 -13 31 -6 5
-4 8 5 8 12 0 12 2 2 9 -7 4 -15 17 -17 27 -2 10 -4 19 -5 19 -1 0 -3 11 -6
24 -2 13 -14 32 -26 42 -11 11 -17 19 -12 19 5 0 0 7 -10 15 -11 8 -17 15 -14
15 4 0 -10 18 -31 40 -20 22 -41 40 -47 40 -5 0 -15 9 -22 20 -7 11 -19 20
-27 20 -8 0 -15 4 -15 10 0 5 -3 9 -7 8 -15 -3 -43 14 -37 23 3 5 2 9 -3 8
-25 -4 -43 2 -37 13 5 8 2 9 -10 5 -10 -4 -25 1 -38 12 -11 11 -26 17 -34 14
-8 -3 -14 0 -14 6 0 6 -3 10 -7 9 -5 -1 -18 3 -29 10 -12 6 -24 8 -28 5 -3 -3
-6 -2 -6 4 0 6 -6 11 -12 10 -31 -1 -49 4 -44 11 2 4 -8 8 -22 7 -19 0 -26 5
-24 15 1 10 -2 9 -13 -4 -15 -20 -15 -20 -15 0 0 16 -2 17 -10 4 -5 -8 -10
-10 -10 -5 0 10 -14 14 -57 17 -7 1 -13 4 -13 8 0 3 -10 7 -22 7 -49 4 -76 8
-75 13 1 3 -1 5 -5 5 -4 0 -13 7 -20 16 -24 29 -98 80 -107 74 -6 -3 -15 4
-21 15 -6 12 -17 19 -23 17 -7 -2 -18 3 -25 12 -11 13 -12 13 -6 1 6 -11 2
-10 -13 3 -11 9 -23 14 -26 10 -4 -3 -7 0 -7 7 0 7 -3 10 -7 7 -3 -4 -13 -1
-21 6 -13 10 -15 9 -8 -3 6 -13 6 -13 -6 0 -7 9 -23 15 -35 14 -13 -1 -23 2
-23 6 0 4 -11 6 -25 5 -14 -2 -25 1 -25 6 0 5 -11 4 -25 -1 -18 -7 -25 -6 -25
3 0 8 -3 8 -9 -2 -7 -11 -9 -11 -14 0 -4 12 -7 11 -16 -1 -7 -9 -14 -11 -18
-5 -5 6 -18 10 -30 11 -15 0 -20 -3 -14 -10 6 -8 -8 -11 -46 -12 -35 -1 -58
-6 -64 -15 -7 -12 -9 -12 -9 1 -1 12 -3 12 -14 -2 -10 -14 -15 -15 -26 -5 -8
8 -11 8 -7 1 4 -7 -2 -14 -13 -17 -18 -5 -19 -1 -17 44 3 47 17 82 17 43 0
-16 2 -17 10 -4 8 12 10 12 10 1 0 -9 8 -6 23 10 13 13 22 26 20 28 -1 2 3 11
10 19 9 13 9 14 0 8 -7 -4 -13 -3 -13 3 0 5 4 12 8 15 11 6 9 36 -3 55 -5 9
-4 12 2 8 6 -4 13 0 17 8 3 8 1 17 -4 20 -4 3 -7 16 -5 30 1 14 -1 25 -6 25
-4 0 -4 13 1 29 6 21 5 32 -3 35 -7 3 -1 4 13 3 14 -1 24 -7 23 -13 -1 -5 9
-10 23 -10 13 0 24 4 24 8 0 4 6 8 14 8 14 0 46 56 46 82 0 10 3 9 10 -2 5 -8
10 -10 10 -4 0 10 12 14 53 15 9 0 17 4 17 10 0 5 3 8 8 8 24 -4 52 2 47 11
-3 6 0 10 8 10 8 0 18 7 21 16 3 8 11 12 16 9 6 -4 9 -3 8 2 -4 11 44 83 55
83 4 0 19 12 32 26 16 17 25 22 25 13 0 -12 2 -12 9 0 5 8 16 11 25 8 9 -4 16
-1 16 5 0 6 3 8 7 5 3 -4 13 -1 21 6 13 10 14 9 7 -3 -8 -13 -6 -13 8 -2 9 8
21 11 27 7 5 -3 10 -2 10 3 0 5 10 8 23 7 12 -1 29 4 39 12 10 9 18 11 22 4 4
-6 16 -7 29 -2 12 4 32 7 45 6 12 -1 22 1 22 5 0 4 12 6 28 6 15 -1 33 3 40 8
6 4 12 5 12 1 0 -4 7 -2 15 5 9 7 15 8 15 2 0 -5 9 -8 20 -5 11 3 17 10 13 17
-4 6 1 5 10 -3 14 -11 17 -11 17 0 0 11 2 11 10 -1 5 -8 10 -10 10 -4 0 6 6
11 13 11 7 0 25 3 41 7 19 5 26 3 21 -5 -4 -6 3 -4 16 4 13 8 39 13 57 12 18
-2 30 0 28 3 -2 4 12 8 32 10 75 5 82 6 82 15 0 5 7 4 15 -3 13 -11 18 -8 17
10 0 3 12 5 26 4 15 -1 33 3 40 9 8 6 12 5 12 -4 1 -10 5 -8 15 5 7 10 18 15
24 11 6 -3 11 1 11 10 0 9 3 14 8 12 4 -2 15 4 24 14 12 13 13 19 5 23 -9 5
-9 7 1 12 14 7 16 44 2 44 -5 0 -9 4 -7 9 4 16 -44 50 -61 44 -15 -6 -15 -5
-3 10 7 9 11 17 8 17 -3 0 -9 -5 -13 -11z"/>
</g>
</svg>
