<?xml version="1.0" encoding="UTF-8" standalone="no"?>
<!-- Created with Inkscape (http://www.inkscape.org/) -->

<svg
   width="210mm"
   height="297mm"
   viewBox="0 0 210 297"
   version="1.1"
   id="svg5"
   inkscape:version="1.2 (dc2aedaf03, 2022-05-15)"
   sodipodi:docname="sets.svg"
   xml:space="preserve"
   xmlns:inkscape="http://www.inkscape.org/namespaces/inkscape"
   xmlns:sodipodi="http://sodipodi.sourceforge.net/DTD/sodipodi-0.dtd"
   xmlns="http://www.w3.org/2000/svg"
   xmlns:svg="http://www.w3.org/2000/svg"><sodipodi:namedview
     id="namedview7"
     pagecolor="#505050"
     bordercolor="#ffffff"
     borderopacity="1"
     inkscape:showpageshadow="0"
     inkscape:pageopacity="0"
     inkscape:pagecheckerboard="1"
     inkscape:deskcolor="#505050"
     inkscape:document-units="mm"
     showgrid="false"
     showguides="true"
     inkscape:lockguides="true"
     inkscape:zoom="1.0084456"
     inkscape:cx="432.34856"
     inkscape:cy="714.96172"
     inkscape:window-width="1344"
     inkscape:window-height="688"
     inkscape:window-x="10"
     inkscape:window-y="68"
     inkscape:window-maximized="1"
     inkscape:current-layer="layer3" /><defs
     id="defs2"><rect
       x="252.93894"
       y="286.73568"
       width="60.787058"
       height="16.877922"
       id="rect1141" /><rect
       x="260.73181"
       y="290.48309"
       width="76.499852"
       height="23.033917"
       id="rect1089" /><rect
       x="252.93893"
       y="286.73569"
       width="62.101501"
       height="16.768135"
       id="rect1141-4" /></defs><g
     inkscape:groupmode="layer"
     id="layer3"
     inkscape:label="Layer 3"><rect
       style="font-variation-settings:'wght' 300;fill:#e6e6e6;fill-opacity:0.994265;stroke-width:2.47099"
       id="rect304"
       width="210"
       height="297"
       x="0"
       y="-1.4210855e-14" /><path
       d="m 140.66485,155.33261 c -0.58035,0.0745 -1.0276,0.26072 -1.39196,0.57821 -0.15708,0.13657 -0.18326,0.17381 -0.43198,0.6066 -0.0742,0.12768 -0.14618,0.19331 -0.27054,0.24298 -0.13527,0.0567 -0.30326,0.0763 -0.84869,0.0976 -0.49963,0.0195 -0.68943,0.0461 -0.88797,0.12415 -0.29454,0.11883 -0.38399,0.29265 -0.30109,0.5853 0.13309,0.4647 0.39926,0.87797 0.6698,1.04469 0.21817,0.13302 0.40144,0.18092 1.15197,0.3033 0.71779,0.11529 1.10613,0.24299 1.39413,0.45406 0.31853,0.23588 0.54762,0.59416 0.68942,1.08016 0.0938,0.32279 0.12655,0.56579 0.20727,1.56968 0.072,0.89746 0.23563,1.69916 0.48435,2.37138 0.0481,0.12948 0.16581,0.41326 0.26181,0.62964 0.54325,1.22382 0.82033,1.98828 1.1825,3.26885 0.40144,1.42247 0.55198,2.22772 0.53017,2.80238 -0.0197,0.46647 -0.0785,0.67931 -0.37308,1.33202 -0.20945,0.46648 -0.26399,0.63142 -0.24655,0.74672 0.0502,0.36181 0.77889,0.32989 1.20651,-0.0533 0.30545,-0.27314 0.92943,-1.20609 1.12142,-1.67612 0.17236,-0.42033 0.168,-0.57288 -0.0349,-1.14755 -0.33381,-0.94357 -0.51708,-1.72577 -0.58035,-2.47778 -0.0393,-0.486 0.0218,-0.78575 0.18763,-0.91699 0.0982,-0.078 0.216,-0.0905 0.34908,-0.0391 0.3229,0.12769 0.46252,0.58708 0.6567,2.16562 0.13309,1.09082 0.21163,2.03793 0.21381,2.56294 0.002,0.78573 -0.10469,1.11918 -0.54325,1.69561 -0.22909,0.30154 -0.2989,0.46649 -0.26181,0.62611 0.0197,0.0815 0.13963,0.17738 0.27053,0.21461 0.3949,0.10992 1.32432,-0.0161 1.70831,-0.23235 0.192,-0.10636 0.26835,-0.25895 0.36654,-0.72896 0.14181,-0.674 0.23344,-1.45617 0.2749,-2.32881 0.0632,-1.38701 0.085,-1.73109 0.1309,-2.1018 0.10691,-0.85135 0.27926,-1.17415 0.69597,-1.30186 0.0611,-0.0177 0.24437,-0.0551 0.40581,-0.0815 0.73961,-0.1206 1.09305,-0.29619 2.43918,-1.20607 0.64799,-0.43811 0.86398,-0.56758 1.1214,-0.67221 0.31636,-0.13126 0.48655,-0.12771 0.63927,0.0111 0.10912,0.0976 0.17671,0.22525 0.35999,0.67399 0.26835,0.65272 0.45162,0.91344 0.92724,1.30187 0.34253,0.28023 0.53015,0.40261 1.52067,0.98793 0.42326,0.25185 0.87052,0.52321 0.9927,0.60659 0.40361,0.27136 0.57816,0.48421 0.70252,0.85134 0.19635,0.57644 0.2029,1.06599 0.0218,1.42247 -0.0982,0.1898 -0.19199,0.26606 -0.4669,0.37603 -0.25743,0.10291 -0.3338,0.16672 -0.3927,0.32635 -0.0415,0.11529 -0.0415,0.17205 0.002,0.26073 0.074,0.15076 0.2531,0.17737 0.99052,0.14366 0.73961,-0.032 0.94469,-0.0976 1.09959,-0.34941 0.0807,-0.12948 0.11346,-0.26251 0.19854,-0.80879 0.13964,-0.87972 0.16582,-1.22914 0.12,-1.56613 -0.10469,-0.76622 -0.43634,-1.2185 -1.30032,-1.78253 -0.48435,-0.31571 -0.65234,-0.48421 -0.75924,-0.76268 -0.11127,-0.28378 -0.12874,-0.63674 -0.0394,-0.77685 0.0983,-0.15609 0.20726,-0.10114 0.7309,0.36715 0.33816,0.30329 0.63705,0.54273 1.13887,0.90632 1.18249,0.86201 1.86538,1.55019 2.42172,2.44765 0.53672,0.87088 0.98178,1.89782 1.20869,2.79352 0.048,0.188 0.10032,0.36893 0.11782,0.40263 0.10912,0.21104 0.41888,0.32457 0.87705,0.32103 0.4669,-0.006 0.8967,-0.16318 1.04286,-0.38489 0.0394,-0.0603 0.048,-0.10114 0.046,-0.23235 -0.002,-0.19511 -0.0523,-0.33167 -0.34691,-0.91166 -0.25088,-0.49662 -0.37961,-0.77685 -0.61524,-1.33203 -0.43853,-1.03757 -0.51927,-1.20785 -0.67416,-1.42778 -0.21164,-0.29797 -0.34908,-0.42036 -0.91198,-0.81411 -0.50834,-0.3565 -0.84216,-0.63143 -1.07342,-0.88328 -0.43198,-0.4718 -0.8356,-1.15642 -1.06469,-1.80913 -0.15272,-0.43277 -0.21599,-0.72365 -0.32943,-1.53955 -0.15054,-1.07128 -0.25309,-1.41358 -0.59999,-1.98471 -0.23345,-0.38311 -0.28363,-0.49662 -0.28363,-0.63142 0,-0.13124 0.0589,-0.2217 0.28799,-0.43986 0.30109,-0.29089 0.384,-0.38668 0.49526,-0.57113 0.25091,-0.41502 0.35781,-0.83006 0.35781,-1.38345 0,-1.14046 -0.54762,-2.11243 -1.46832,-2.60727 -0.42761,-0.22702 -1.00795,-0.38844 -1.6363,-0.4523 -0.22909,-0.023 -0.82906,-0.023 -1.04724,0 -0.72653,0.0763 -1.2545,0.35474 -1.80211,0.95069 l -0.19854,0.21463 0.16798,0.0111 c 0.24436,0.0161 0.8487,-0.0161 1.11488,-0.0585 0.12655,-0.0195 0.3818,-0.0709 0.56726,-0.11352 0.77888,-0.18091 1.03632,-0.22348 1.3854,-0.22348 0.4538,0 0.82905,0.12771 1.1956,0.40795 0.35344,0.26959 0.58906,0.61723 0.69161,1.01452 0.0394,0.15964 0.0436,0.21994 0.0327,0.48421 -0.0111,0.32813 -0.037,0.4452 -0.1549,0.73253 -0.20291,0.4913 -0.53453,0.83716 -0.88143,0.92053 -0.25962,0.0603 -0.51925,-0.016 -1.11271,-0.3299 -0.57596,-0.3033 -0.88141,-0.41504 -1.36575,-0.49486 -0.42981,-0.0727 -0.65452,-0.0834 -1.67993,-0.0815 -1.06251,0 -1.42687,0.0161 -2.60719,0.11529 -1.12577,0.094 -1.30905,0.10469 -1.78902,0.10469 -1.33741,0 -2.23412,-0.23589 -3.54098,-0.93294 -0.50616,-0.2696 -0.65889,-0.36716 -0.72215,-0.45405 -0.0284,-0.0425 -0.12655,-0.21641 -0.216,-0.38666 -0.92942,-1.77189 -1.11923,-2.0415 -1.61012,-2.30044 -0.34253,-0.17914 -0.88362,-0.3565 -1.31997,-0.431 -0.24434,-0.0409 -0.79414,-0.0621 -0.99267,-0.0354 z"
       id="path2829-1"
       style="fill:#000000;stroke:none;stroke-width:0.00196714" /></g><g
     inkscape:label="Layer 1"
     inkscape:groupmode="layer"
     id="layer1"><path
       style="fill:#757575;fill-opacity:0.99426496;stroke-width:0.357745"
       id="path61"
       sodipodi:type="arc"
       sodipodi:cx="59.381664"
       sodipodi:cy="146.11954"
       sodipodi:rx="30.04258"
       sodipodi:ry="40.491219"
       sodipodi:start="6.0338946"
       sodipodi:end="6.031759"
       sodipodi:open="true"
       sodipodi:arc-type="arc"
       d="M 88.495557,136.12968 A 30.04258,40.491219 0 0 1 66.809212,185.35374 30.04258,40.491219 0 0 1 30.275702,156.15129 30.04258,40.491219 0 0 1 51.923037,106.89605 30.04258,40.491219 0 0 1 88.479662,136.0459"><desc
         id="desc223">Conjunto A
</desc></path><path
       d="m 51.384519,158.75784 c -0.968308,0.29306 -1.344979,0.64126 -1.748519,1.582 -0.435834,1.02023 -0.597061,1.97329 -0.489576,2.84659 0.161465,1.22792 0.554161,2.33942 1.377271,3.90938 l 0.602483,1.14843 -0.03771,0.50717 c -0.02145,0.28103 -0.102301,0.83075 -0.177492,1.21561 -0.08062,0.38487 -0.161462,0.97125 -0.193756,1.2951 -0.03229,0.3482 -0.09688,0.70843 -0.161464,0.87972 -0.188335,0.48256 -0.564768,1.01408 -1.059765,1.50252 l -0.478734,0.47051 -0.344376,0.9651 c -0.532712,1.50278 -0.59706,1.71636 -0.710203,2.41276 -0.05375,0.35434 -0.112907,0.68407 -0.129171,0.73305 -0.03229,0.0915 0.344376,0.6169 0.511026,0.72074 0.134591,0.0794 0.344376,-0.0305 0.468126,-0.23819 0.06459,-0.11589 0.09146,-0.29922 0.09688,-0.67792 0,-0.47051 0.02687,-0.58024 0.25292,-1.21562 0.139778,-0.38486 0.312084,-0.76973 0.387277,-0.8551 0.295819,-0.3482 0.683332,-0.54357 1.646219,-0.82459 0.516447,-0.14666 1.011445,-0.30537 1.102902,-0.34203 0.134592,-0.0549 0.166885,-0.049 0.226049,0.0367 0.09688,0.14666 0.08603,0.31152 -0.03771,1.05048 -0.05917,0.34204 -0.107484,0.7451 -0.107484,0.89175 0,0.54973 0.602481,1.59433 1.603084,2.78531 l 0.414149,0.49486 0.640196,-0.0182 c 0.618746,-0.0182 0.640196,-0.0243 0.747918,-0.17718 0.09146,-0.14665 0.09688,-0.18333 0.03229,-0.32999 -0.107485,-0.25051 -0.322691,-0.40307 -0.629353,-0.4459 -0.263527,-0.0428 -0.29582,-0.0673 -0.731653,-0.60485 -0.478732,-0.5864 -0.554161,-0.7451 -0.494998,-1.0751 0.04313,-0.25667 0.554162,-1.10561 0.984572,-1.64329 0.242079,-0.29923 0.414148,-0.5864 0.554163,-0.94075 0.188334,-0.45819 0.226047,-0.51306 0.360406,-0.51921 1.716224,-0.0549 2.210987,-0.10384 2.507043,-0.22616 l 0.306662,-0.1282 0.473314,0.15282 c 1.269784,0.39717 1.167484,0.34204 1.183512,0.60459 0.03229,0.42153 -0.204363,2.10739 -0.371248,2.66327 -0.140014,0.47023 -0.156042,0.61074 -0.156042,1.25843 0,0.65356 0.01086,0.75125 0.112905,0.89791 0.107725,0.15283 0.129173,0.15872 0.661649,0.15872 0.618745,0 0.677909,-0.0305 0.677909,-0.37256 0,-0.17717 -0.03771,-0.26282 -0.161463,-0.37871 -0.08603,-0.0856 -0.209783,-0.17717 -0.268948,-0.19537 -0.220629,-0.0794 -0.09146,-0.5069 0.586453,-1.97918 0.866246,-1.89353 0.979153,-2.02199 1.710806,-2.02199 0.258341,0 0.516446,-0.0367 0.667067,-0.10385 l 0.25292,-0.0977 0.344377,0.28102 c 0.376669,0.29921 0.688518,0.66587 0.688518,0.80023 0,0.11589 0.360405,0.47639 1.721648,1.72251 0.634775,0.5864 1.291235,1.19099 1.452462,1.34381 0.161464,0.15897 0.392699,0.33589 0.516448,0.3969 0.118327,0.0611 0.328112,0.22616 0.462705,0.36051 l 0.247497,0.24436 h 0.575849 c 0.559581,0 0.575611,-0.007 0.731653,-0.17718 0.204362,-0.23819 0.199176,-0.3787 -0.0323,-0.61074 -0.172071,-0.17103 -0.226048,-0.1895 -0.532711,-0.1895 H 69.88045 l -0.43041,-0.5069 c -0.941438,-1.09945 -1.37185,-1.69817 -1.726834,-2.40686 -0.559582,-1.10561 -0.537898,-0.97742 -0.559582,-2.98711 l -0.01603,-1.77148 0.182915,-0.40922 c 0.198942,-0.44589 0.532476,-0.83691 0.936017,-1.10561 0.204362,-0.14051 0.349561,-0.17717 0.790817,-0.21999 0.295818,-0.0305 0.559583,-0.0673 0.586454,-0.0854 0.02145,-0.0184 0.156041,-0.25667 0.29582,-0.53153 0.182913,-0.34819 0.247499,-0.53741 0.225814,-0.63538 -0.01602,-0.0794 -0.188337,-0.36023 -0.376671,-0.62921 -0.193756,-0.2687 -0.365827,-0.56203 -0.387276,-0.64741 -0.04856,-0.22616 -0.494997,-0.66588 -0.855403,-0.8369 l -0.301241,-0.14668 0.01603,-0.61074 c 0.01603,-0.5987 0.01087,-0.61075 -0.1023,-0.5987 -0.07519,0.0124 -0.12375,-0.0243 -0.134594,-0.0915 -0.01603,-0.0794 -0.182911,0.0732 -0.640195,0.58024 -0.543318,0.60487 -0.667067,0.7146 -1.124351,0.95279 -0.392698,0.21385 -0.623932,0.39101 -0.979152,0.75741 -0.25787,0.26335 -0.639961,0.58105 -0.849746,0.70925 -0.349562,0.21999 -0.408726,0.23819 -0.812267,0.23204 -0.236655,0 -0.715624,-0.0549 -1.059764,-0.12205 -0.344378,-0.0672 -0.871432,-0.15281 -1.167488,-0.18949 -0.295819,-0.0367 -1.204964,-0.18333 -2.017467,-0.33588 -2.243281,-0.40306 -2.415587,-0.42768 -3.577652,-0.42153 -0.769367,0 -1.355821,0.0428 -2.065788,0.14051 l -0.989985,0.13436 -0.290636,-0.17103 c -0.360408,-0.20769 -0.979154,-0.84306 -1.162067,-1.19714 -0.306662,-0.59254 -0.737074,-2.37609 -0.737074,-3.04196 0.0054,-0.66589 0.279791,-1.66149 0.55416,-1.99738 0.252921,-0.31153 0.882274,-0.53153 1.2481,-0.43973 0.193757,0.049 0.419569,0.21384 0.586455,0.42153 0.156042,0.19538 0.387277,0.17102 0.489576,-0.0551 0.102301,-0.22615 0.102301,-0.62922 0.0054,-0.84895 -0.102301,-0.22614 -0.511028,-0.64125 -0.779976,-0.79408 -0.258106,-0.15282 -0.84456,-0.17128 -1.269551,-0.0369 z"
       id="path2769-6"
       style="stroke-width:0.00251169" /><path
       d="m 51.384517,135.51745 c -0.968309,0.29306 -1.344979,0.64126 -1.748519,1.582 -0.435834,1.02023 -0.597061,1.97329 -0.489576,2.84659 0.161464,1.22792 0.554161,2.33942 1.377271,3.90938 l 0.602483,1.14843 -0.03771,0.50717 c -0.02145,0.28103 -0.102301,0.83075 -0.177492,1.21561 -0.08062,0.38487 -0.161462,0.97125 -0.193755,1.2951 -0.03229,0.3482 -0.09688,0.70843 -0.161464,0.87972 -0.188335,0.48256 -0.564768,1.01408 -1.059765,1.50252 l -0.478734,0.47051 -0.344376,0.9651 c -0.532712,1.50278 -0.597061,1.71636 -0.710203,2.41276 -0.05375,0.35434 -0.112907,0.68407 -0.129171,0.73305 -0.03229,0.0915 0.344376,0.6169 0.511026,0.72074 0.134591,0.0794 0.344376,-0.0305 0.468126,-0.23819 0.06459,-0.11589 0.09146,-0.29922 0.09688,-0.67792 0,-0.47051 0.02687,-0.58024 0.25292,-1.21562 0.139778,-0.38486 0.312084,-0.76973 0.387277,-0.8551 0.295819,-0.3482 0.683332,-0.54357 1.646219,-0.82459 0.516447,-0.14666 1.011445,-0.30537 1.102902,-0.34203 0.134592,-0.0549 0.166885,-0.049 0.226049,0.0367 0.09688,0.14666 0.08603,0.31152 -0.03771,1.05048 -0.05917,0.34204 -0.107484,0.7451 -0.107484,0.89175 0,0.54973 0.602482,1.59433 1.603084,2.78531 l 0.414149,0.49486 0.640196,-0.0182 c 0.618746,-0.0182 0.640196,-0.0243 0.747918,-0.17718 0.09146,-0.14665 0.09688,-0.18333 0.03229,-0.32999 -0.107485,-0.25051 -0.322691,-0.40307 -0.629353,-0.4459 -0.263527,-0.0428 -0.29582,-0.0673 -0.731653,-0.60485 -0.478732,-0.5864 -0.554161,-0.7451 -0.494998,-1.0751 0.04313,-0.25667 0.554162,-1.10561 0.984573,-1.64329 0.242078,-0.29923 0.414148,-0.5864 0.554162,-0.94075 0.188334,-0.45819 0.226048,-0.51306 0.360406,-0.51921 1.716225,-0.0549 2.210987,-0.10384 2.507044,-0.22616 l 0.306661,-0.1282 0.473314,0.15282 c 1.269784,0.39717 1.167484,0.34204 1.183513,0.60459 0.03229,0.42153 -0.204363,2.10739 -0.371248,2.66327 -0.140014,0.47023 -0.156042,0.61074 -0.156042,1.25843 0,0.65356 0.01086,0.75125 0.112905,0.89791 0.107725,0.15283 0.129173,0.15872 0.661649,0.15872 0.618745,0 0.677909,-0.0305 0.677909,-0.37256 0,-0.17717 -0.03771,-0.26282 -0.161463,-0.37871 -0.08603,-0.0856 -0.209783,-0.17717 -0.268948,-0.19537 -0.220629,-0.0794 -0.09146,-0.5069 0.586453,-1.97918 0.866246,-1.89353 0.979153,-2.02199 1.710806,-2.02199 0.258341,0 0.516446,-0.0367 0.667067,-0.10385 l 0.25292,-0.0977 0.344377,0.28102 c 0.376669,0.29921 0.688518,0.66587 0.688518,0.80023 0,0.11589 0.360405,0.47639 1.721648,1.72251 0.634775,0.5864 1.291235,1.19099 1.452462,1.34381 0.161464,0.15897 0.392699,0.33589 0.516448,0.3969 0.118327,0.0611 0.328112,0.22616 0.462705,0.36051 l 0.247497,0.24436 h 0.575849 c 0.559581,0 0.575611,-0.007 0.731653,-0.17718 0.204362,-0.23819 0.199176,-0.3787 -0.0323,-0.61074 -0.172071,-0.17103 -0.226048,-0.1895 -0.532711,-0.1895 H 69.88045 l -0.43041,-0.5069 c -0.941438,-1.09945 -1.37185,-1.69817 -1.726834,-2.40686 -0.559582,-1.10561 -0.537898,-0.97742 -0.559582,-2.98711 l -0.01603,-1.77148 0.182915,-0.40922 c 0.198942,-0.44589 0.532476,-0.83691 0.936017,-1.10561 0.204362,-0.14051 0.349561,-0.17717 0.790817,-0.21999 0.295818,-0.0305 0.559583,-0.0673 0.586454,-0.0854 0.02145,-0.0184 0.156041,-0.25667 0.29582,-0.53153 0.182913,-0.34819 0.247499,-0.53741 0.225814,-0.63538 -0.01602,-0.0794 -0.188337,-0.36023 -0.376671,-0.62921 -0.193756,-0.2687 -0.365827,-0.56203 -0.387276,-0.64741 -0.04856,-0.22616 -0.494997,-0.66588 -0.855403,-0.8369 l -0.301241,-0.14668 0.01603,-0.61074 c 0.01603,-0.5987 0.01087,-0.61075 -0.1023,-0.5987 -0.07519,0.0124 -0.12375,-0.0243 -0.134594,-0.0915 -0.01603,-0.0794 -0.182911,0.0732 -0.640195,0.58024 -0.543318,0.60487 -0.667067,0.7146 -1.124351,0.95279 -0.392698,0.21385 -0.623932,0.39101 -0.979152,0.75741 -0.25787,0.26335 -0.639961,0.58105 -0.849746,0.70925 -0.349562,0.21999 -0.408726,0.23819 -0.812267,0.23204 -0.236655,0 -0.715624,-0.0549 -1.059764,-0.12205 -0.344378,-0.0672 -0.871432,-0.15281 -1.167488,-0.18949 -0.295819,-0.0367 -1.204964,-0.18333 -2.017467,-0.33588 -2.243281,-0.40306 -2.415587,-0.42768 -3.577652,-0.42153 -0.769367,0 -1.355821,0.0428 -2.065788,0.14051 l -0.989985,0.13436 -0.290636,-0.17103 c -0.360408,-0.20769 -0.979154,-0.84306 -1.162067,-1.19714 -0.306662,-0.59254 -0.737074,-2.37609 -0.737074,-3.04196 0.0054,-0.66589 0.279791,-1.66149 0.55416,-1.99738 0.252921,-0.31153 0.882274,-0.53153 1.2481,-0.43973 0.193757,0.049 0.419569,0.21384 0.586455,0.42153 0.156042,0.19538 0.387277,0.17102 0.489576,-0.0551 0.102301,-0.22615 0.102301,-0.62922 0.0054,-0.84895 -0.102301,-0.22614 -0.511028,-0.64125 -0.779976,-0.79408 -0.258106,-0.15282 -0.84456,-0.17128 -1.269551,-0.0369 z"
       id="path2769-7"
       style="stroke-width:0.00251169" /><path
       style="fill:#0000ff;stroke-width:0.349798"
       id="path63"
       sodipodi:type="arc"
       sodipodi:cx="120.79839"
       sodipodi:cy="164.32872"
       sodipodi:rx="0.27249229"
       sodipodi:ry="1.8363074"
       sodipodi:start="6.0338946"
       sodipodi:end="0.025983761"
       sodipodi:open="true"
       sodipodi:arc-type="arc"
       d="m 121.06246,163.87567 a 0.27249229,1.8363074 0 0 1 0.008,0.50076" /><path
       style="fill:#757575;fill-opacity:0.99426496;stroke-width:0.357745"
       id="path61-4"
       sodipodi:type="arc"
       sodipodi:cx="153.96899"
       sodipodi:cy="145.18422"
       sodipodi:rx="30.04258"
       sodipodi:ry="40.491219"
       sodipodi:start="6.0338946"
       sodipodi:end="6.031759"
       sodipodi:open="true"
       sodipodi:arc-type="arc"
       d="m 183.08289,135.19436 a 30.04258,40.491219 0 0 1 -21.68635,49.22406 30.04258,40.491219 0 0 1 -36.53351,-29.20245 30.04258,40.491219 0 0 1 21.64734,-49.25524 30.04258,40.491219 0 0 1 36.55662,29.14985"><desc
         id="desc223-8">Conjunto A
</desc></path><path
       d="m 144.17564,135.77345 c -0.58035,0.0745 -1.0276,0.26072 -1.39196,0.57821 -0.15708,0.13657 -0.18326,0.17381 -0.43198,0.6066 -0.0742,0.12768 -0.14618,0.19331 -0.27054,0.24298 -0.13527,0.0567 -0.30326,0.0763 -0.84869,0.0976 -0.49963,0.0195 -0.68943,0.0461 -0.88797,0.12415 -0.29454,0.11883 -0.38399,0.29265 -0.30109,0.5853 0.13309,0.4647 0.39926,0.87797 0.6698,1.04469 0.21817,0.13302 0.40144,0.18092 1.15197,0.3033 0.71779,0.11529 1.10613,0.24299 1.39413,0.45406 0.31853,0.23588 0.54762,0.59416 0.68942,1.08016 0.0938,0.32279 0.12655,0.56579 0.20727,1.56968 0.072,0.89746 0.23563,1.69916 0.48435,2.37138 0.0481,0.12948 0.16581,0.41326 0.26181,0.62964 0.54325,1.22382 0.82033,1.98828 1.1825,3.26885 0.40144,1.42247 0.55198,2.22772 0.53017,2.80238 -0.0197,0.46647 -0.0785,0.67931 -0.37308,1.33202 -0.20945,0.46648 -0.26399,0.63142 -0.24655,0.74672 0.0502,0.36181 0.77889,0.32989 1.20651,-0.0533 0.30545,-0.27314 0.92943,-1.20609 1.12142,-1.67612 0.17236,-0.42033 0.168,-0.57288 -0.0349,-1.14755 -0.33381,-0.94357 -0.51708,-1.72577 -0.58035,-2.47778 -0.0393,-0.486 0.0218,-0.78575 0.18763,-0.91699 0.0982,-0.078 0.216,-0.0905 0.34908,-0.0391 0.3229,0.12769 0.46252,0.58708 0.6567,2.16562 0.13309,1.09082 0.21163,2.03793 0.21381,2.56294 0.002,0.78573 -0.10469,1.11918 -0.54325,1.69561 -0.22909,0.30154 -0.2989,0.46649 -0.26181,0.62611 0.0197,0.0815 0.13963,0.17738 0.27053,0.21461 0.3949,0.10992 1.32432,-0.0161 1.70831,-0.23235 0.192,-0.10636 0.26835,-0.25895 0.36654,-0.72896 0.14181,-0.674 0.23344,-1.45617 0.2749,-2.32881 0.0632,-1.38701 0.085,-1.73109 0.1309,-2.1018 0.10691,-0.85135 0.27926,-1.17415 0.69597,-1.30186 0.0611,-0.0177 0.24437,-0.0551 0.40581,-0.0815 0.73961,-0.1206 1.09305,-0.29619 2.43918,-1.20607 0.64799,-0.43811 0.86398,-0.56758 1.1214,-0.67221 0.31636,-0.13126 0.48655,-0.12771 0.63927,0.0111 0.10912,0.0976 0.17671,0.22525 0.35999,0.67399 0.26835,0.65272 0.45162,0.91344 0.92724,1.30187 0.34253,0.28023 0.53015,0.40261 1.52067,0.98793 0.42326,0.25185 0.87052,0.52321 0.9927,0.60659 0.40361,0.27136 0.57816,0.48421 0.70252,0.85134 0.19635,0.57644 0.2029,1.06599 0.0218,1.42247 -0.0982,0.1898 -0.19199,0.26606 -0.4669,0.37603 -0.25743,0.10291 -0.3338,0.16672 -0.3927,0.32635 -0.0415,0.11529 -0.0415,0.17205 0.002,0.26073 0.074,0.15076 0.2531,0.17737 0.99052,0.14366 0.73961,-0.032 0.94469,-0.0976 1.09959,-0.34941 0.0807,-0.12948 0.11346,-0.26251 0.19854,-0.80879 0.13964,-0.87972 0.16582,-1.22914 0.12,-1.56613 -0.10469,-0.76622 -0.43634,-1.2185 -1.30032,-1.78253 -0.48435,-0.31571 -0.65234,-0.48421 -0.75924,-0.76268 -0.11127,-0.28378 -0.12874,-0.63674 -0.0394,-0.77685 0.0983,-0.15609 0.20726,-0.10114 0.7309,0.36715 0.33816,0.30329 0.63705,0.54273 1.13887,0.90632 1.18249,0.86201 1.86538,1.55019 2.42172,2.44765 0.53672,0.87088 0.98178,1.89782 1.20869,2.79352 0.048,0.188 0.10032,0.36893 0.11782,0.40263 0.10912,0.21104 0.41888,0.32457 0.87705,0.32103 0.4669,-0.006 0.8967,-0.16318 1.04286,-0.38489 0.0394,-0.0603 0.048,-0.10114 0.046,-0.23235 -0.002,-0.19511 -0.0523,-0.33167 -0.34691,-0.91166 -0.25088,-0.49662 -0.37961,-0.77685 -0.61524,-1.33203 -0.43853,-1.03757 -0.51927,-1.20785 -0.67416,-1.42778 -0.21164,-0.29797 -0.34908,-0.42036 -0.91198,-0.81411 -0.50834,-0.3565 -0.84216,-0.63143 -1.07342,-0.88328 -0.43198,-0.4718 -0.8356,-1.15642 -1.06469,-1.80913 -0.15272,-0.43277 -0.21599,-0.72365 -0.32943,-1.53955 -0.15054,-1.07128 -0.25309,-1.41358 -0.59999,-1.98471 -0.23345,-0.38311 -0.28363,-0.49662 -0.28363,-0.63142 0,-0.13124 0.0589,-0.2217 0.28799,-0.43986 0.30109,-0.29089 0.384,-0.38668 0.49526,-0.57113 0.25091,-0.41502 0.35781,-0.83006 0.35781,-1.38345 0,-1.14046 -0.54762,-2.11243 -1.46832,-2.60727 -0.42761,-0.22702 -1.00795,-0.38844 -1.6363,-0.4523 -0.22909,-0.023 -0.82906,-0.023 -1.04724,0 -0.72653,0.0763 -1.2545,0.35474 -1.80211,0.95069 l -0.19854,0.21463 0.16798,0.0111 c 0.24436,0.0161 0.8487,-0.0161 1.11488,-0.0585 0.12655,-0.0195 0.3818,-0.0709 0.56726,-0.11352 0.77888,-0.18091 1.03632,-0.22348 1.3854,-0.22348 0.4538,0 0.82905,0.12771 1.1956,0.40795 0.35344,0.26959 0.58906,0.61723 0.69161,1.01452 0.0394,0.15964 0.0436,0.21994 0.0327,0.48421 -0.0111,0.32813 -0.037,0.4452 -0.1549,0.73253 -0.20291,0.4913 -0.53453,0.83716 -0.88143,0.92053 -0.25962,0.0603 -0.51925,-0.016 -1.11271,-0.3299 -0.57596,-0.3033 -0.88141,-0.41504 -1.36575,-0.49486 -0.42981,-0.0727 -0.65452,-0.0834 -1.67993,-0.0815 -1.06251,0 -1.42687,0.0161 -2.60719,0.11529 -1.12577,0.094 -1.30905,0.10469 -1.78902,0.10469 -1.33741,0 -2.23412,-0.23589 -3.54098,-0.93294 -0.50616,-0.2696 -0.65889,-0.36716 -0.72215,-0.45405 -0.0284,-0.0425 -0.12655,-0.21641 -0.216,-0.38666 -0.92942,-1.77189 -1.11923,-2.0415 -1.61012,-2.30044 -0.34253,-0.17914 -0.88362,-0.3565 -1.31997,-0.431 -0.24434,-0.0409 -0.79414,-0.0621 -0.99267,-0.0354 z"
       id="path2829-3"
       style="fill:#000000;stroke:none;stroke-width:0.00196714" /><path
       d="m 51.384519,109.20757 c -0.968309,0.29306 -1.344979,0.64126 -1.748519,1.582 -0.435834,1.02023 -0.597061,1.97329 -0.489576,2.84659 0.161464,1.22792 0.554161,2.33942 1.377271,3.90938 l 0.602483,1.14843 -0.03771,0.50717 c -0.02145,0.28103 -0.102301,0.83075 -0.177492,1.21561 -0.08062,0.38487 -0.161462,0.97125 -0.193755,1.2951 -0.03229,0.3482 -0.09688,0.70843 -0.161464,0.87972 -0.188335,0.48256 -0.564768,1.01408 -1.059765,1.50252 l -0.478734,0.47051 -0.344376,0.9651 c -0.532712,1.50278 -0.597061,1.71636 -0.710203,2.41276 -0.05375,0.35434 -0.112907,0.68407 -0.129171,0.73305 -0.03229,0.0915 0.344376,0.6169 0.511026,0.72074 0.134591,0.0794 0.344376,-0.0305 0.468126,-0.23819 0.06459,-0.11589 0.09146,-0.29922 0.09688,-0.67792 0,-0.47051 0.02687,-0.58024 0.25292,-1.21562 0.139778,-0.38486 0.312084,-0.76973 0.387277,-0.8551 0.295819,-0.3482 0.683332,-0.54357 1.646219,-0.82459 0.516447,-0.14666 1.011445,-0.30537 1.102902,-0.34203 0.134592,-0.0549 0.166885,-0.049 0.226049,0.0367 0.09688,0.14666 0.08603,0.31152 -0.03771,1.05048 -0.05917,0.34204 -0.107484,0.7451 -0.107484,0.89175 0,0.54973 0.602482,1.59433 1.603084,2.78531 l 0.414149,0.49486 0.640196,-0.0182 c 0.618746,-0.0182 0.640196,-0.0243 0.747918,-0.17718 0.09146,-0.14665 0.09688,-0.18333 0.03229,-0.32999 -0.107485,-0.25051 -0.322691,-0.40307 -0.629353,-0.4459 -0.263527,-0.0428 -0.29582,-0.0673 -0.731653,-0.60485 -0.478732,-0.5864 -0.554161,-0.7451 -0.494998,-1.0751 0.04313,-0.25667 0.554162,-1.10561 0.984573,-1.64329 0.242078,-0.29923 0.414148,-0.5864 0.554162,-0.94075 0.188334,-0.45819 0.226048,-0.51306 0.360406,-0.51921 1.716225,-0.0549 2.210987,-0.10384 2.507044,-0.22616 l 0.306661,-0.1282 0.473314,0.15282 c 1.269784,0.39717 1.167484,0.34204 1.183513,0.60459 0.03229,0.42153 -0.204363,2.10739 -0.371248,2.66327 -0.140014,0.47023 -0.156042,0.61074 -0.156042,1.25843 0,0.65356 0.01086,0.75125 0.112905,0.89791 0.107725,0.15283 0.129173,0.15872 0.661649,0.15872 0.618745,0 0.677909,-0.0305 0.677909,-0.37256 0,-0.17717 -0.03771,-0.26282 -0.161463,-0.37871 -0.08603,-0.0856 -0.209783,-0.17717 -0.268948,-0.19537 -0.220629,-0.0794 -0.09146,-0.5069 0.586453,-1.97918 0.866246,-1.89353 0.979153,-2.02199 1.710806,-2.02199 0.258341,0 0.516446,-0.0367 0.667067,-0.10385 l 0.25292,-0.0977 0.344377,0.28102 c 0.376669,0.29921 0.688518,0.66587 0.688518,0.80023 0,0.11589 0.360405,0.47639 1.721648,1.72251 0.634775,0.5864 1.291235,1.19099 1.452462,1.34381 0.161464,0.15897 0.392699,0.33589 0.516448,0.3969 0.118327,0.0611 0.328112,0.22616 0.462705,0.36051 l 0.247497,0.24436 h 0.575849 c 0.559581,0 0.575611,-0.007 0.731653,-0.17718 0.204362,-0.23819 0.199176,-0.3787 -0.0323,-0.61074 -0.172071,-0.17103 -0.226048,-0.1895 -0.532711,-0.1895 h -0.338721 l -0.43041,-0.5069 c -0.941438,-1.09945 -1.37185,-1.69817 -1.726834,-2.40686 -0.559582,-1.10561 -0.537898,-0.97742 -0.559582,-2.98711 l -0.01603,-1.77148 0.182915,-0.40922 c 0.198942,-0.44589 0.532476,-0.83691 0.936017,-1.10561 0.204362,-0.14051 0.349561,-0.17717 0.790817,-0.21999 0.295818,-0.0305 0.559583,-0.0673 0.586454,-0.0854 0.02145,-0.0184 0.156041,-0.25667 0.29582,-0.53153 0.182913,-0.34819 0.247499,-0.53741 0.225814,-0.63538 -0.01602,-0.0794 -0.188337,-0.36023 -0.376671,-0.62921 -0.193756,-0.2687 -0.365827,-0.56203 -0.387276,-0.64741 -0.04856,-0.22616 -0.494997,-0.66588 -0.855403,-0.8369 l -0.301241,-0.14668 0.01603,-0.61074 c 0.01603,-0.5987 0.01087,-0.61075 -0.1023,-0.5987 -0.07519,0.0124 -0.12375,-0.0243 -0.134594,-0.0915 -0.01603,-0.0794 -0.182911,0.0732 -0.640195,0.58024 -0.543318,0.60487 -0.667067,0.7146 -1.124351,0.95279 -0.392698,0.21385 -0.623932,0.39101 -0.979152,0.75741 -0.25787,0.26335 -0.639961,0.58105 -0.849746,0.70925 -0.349562,0.21999 -0.408726,0.23819 -0.812267,0.23204 -0.236655,0 -0.715624,-0.0549 -1.059764,-0.12205 -0.344378,-0.0672 -0.871432,-0.15281 -1.167488,-0.18949 -0.295819,-0.0367 -1.204964,-0.18333 -2.017467,-0.33588 -2.243281,-0.40306 -2.415587,-0.42768 -3.577652,-0.42153 -0.769367,0 -1.355821,0.0428 -2.065788,0.14051 l -0.989985,0.13436 -0.290636,-0.17103 c -0.360408,-0.20769 -0.979154,-0.84306 -1.162067,-1.19714 -0.306662,-0.59254 -0.737074,-2.37609 -0.737074,-3.04196 0.0054,-0.66589 0.279791,-1.66149 0.55416,-1.99738 0.252921,-0.31153 0.882274,-0.53153 1.2481,-0.43973 0.193757,0.049 0.419569,0.21384 0.586455,0.42153 0.156042,0.19538 0.387277,0.17102 0.489576,-0.0551 0.102301,-0.22615 0.102301,-0.62922 0.0054,-0.84895 -0.102301,-0.22614 -0.511028,-0.64125 -0.779976,-0.79408 -0.258106,-0.15282 -0.84456,-0.17128 -1.269551,-0.0369 z"
       id="path2769"
       style="stroke-width:0.00251169" /><path
       d="m 144.17564,110.39889 c -0.58035,0.0745 -1.0276,0.26072 -1.39196,0.57821 -0.15708,0.13657 -0.18326,0.17381 -0.43198,0.6066 -0.0742,0.12768 -0.14618,0.19331 -0.27054,0.24298 -0.13527,0.0567 -0.30326,0.0763 -0.84869,0.0976 -0.49963,0.0195 -0.68943,0.0461 -0.88797,0.12415 -0.29454,0.11883 -0.38399,0.29265 -0.30109,0.5853 0.13309,0.4647 0.39926,0.87797 0.6698,1.04469 0.21817,0.13302 0.40144,0.18092 1.15197,0.3033 0.71779,0.11529 1.10613,0.24299 1.39413,0.45406 0.31853,0.23588 0.54762,0.59416 0.68942,1.08016 0.0938,0.32279 0.12655,0.56579 0.20727,1.56968 0.072,0.89746 0.23563,1.69916 0.48435,2.37138 0.0481,0.12948 0.16581,0.41326 0.26181,0.62964 0.54325,1.22382 0.82033,1.98828 1.1825,3.26885 0.40144,1.42247 0.55198,2.22772 0.53017,2.80238 -0.0197,0.46647 -0.0785,0.67931 -0.37308,1.33202 -0.20945,0.46648 -0.26399,0.63142 -0.24655,0.74672 0.0502,0.36181 0.77889,0.32989 1.20651,-0.0533 0.30545,-0.27314 0.92943,-1.20609 1.12142,-1.67612 0.17236,-0.42033 0.168,-0.57288 -0.0349,-1.14755 -0.33381,-0.94357 -0.51708,-1.72577 -0.58035,-2.47778 -0.0393,-0.486 0.0218,-0.78575 0.18763,-0.91699 0.0982,-0.078 0.216,-0.0905 0.34908,-0.0391 0.3229,0.12769 0.46252,0.58708 0.6567,2.16562 0.13309,1.09082 0.21163,2.03793 0.21381,2.56294 0.002,0.78573 -0.10469,1.11918 -0.54325,1.69561 -0.22909,0.30154 -0.2989,0.46649 -0.26181,0.62611 0.0197,0.0815 0.13963,0.17738 0.27053,0.21461 0.3949,0.10992 1.32432,-0.0161 1.70831,-0.23235 0.192,-0.10636 0.26835,-0.25895 0.36654,-0.72896 0.14181,-0.674 0.23344,-1.45617 0.2749,-2.32881 0.0632,-1.38701 0.085,-1.73109 0.1309,-2.1018 0.10691,-0.85135 0.27926,-1.17415 0.69597,-1.30186 0.0611,-0.0177 0.24437,-0.0551 0.40581,-0.0815 0.73961,-0.1206 1.09305,-0.29619 2.43918,-1.20607 0.64799,-0.43811 0.86398,-0.56758 1.1214,-0.67221 0.31636,-0.13126 0.48655,-0.12771 0.63927,0.0111 0.10912,0.0976 0.17671,0.22525 0.35999,0.67399 0.26835,0.65272 0.45162,0.91344 0.92724,1.30187 0.34253,0.28023 0.53015,0.40261 1.52067,0.98793 0.42326,0.25185 0.87052,0.52321 0.9927,0.60659 0.40361,0.27136 0.57816,0.48421 0.70252,0.85134 0.19635,0.57644 0.2029,1.06599 0.0218,1.42247 -0.0982,0.1898 -0.19199,0.26606 -0.4669,0.37603 -0.25743,0.10291 -0.3338,0.16672 -0.3927,0.32635 -0.0415,0.11529 -0.0415,0.17205 0.002,0.26073 0.074,0.15076 0.2531,0.17737 0.99052,0.14366 0.73961,-0.032 0.94469,-0.0976 1.09959,-0.34941 0.0807,-0.12948 0.11346,-0.26251 0.19854,-0.80879 0.13964,-0.87972 0.16582,-1.22914 0.12,-1.56613 -0.10469,-0.76622 -0.43634,-1.2185 -1.30032,-1.78253 -0.48435,-0.31571 -0.65234,-0.48421 -0.75924,-0.76268 -0.11127,-0.28378 -0.12874,-0.63674 -0.0394,-0.77685 0.0983,-0.15609 0.20726,-0.10114 0.7309,0.36715 0.33816,0.30329 0.63705,0.54273 1.13887,0.90632 1.18249,0.86201 1.86538,1.55019 2.42172,2.44765 0.53672,0.87088 0.98178,1.89782 1.20869,2.79352 0.048,0.188 0.10032,0.36893 0.11782,0.40263 0.10912,0.21104 0.41888,0.32457 0.87705,0.32103 0.4669,-0.006 0.8967,-0.16318 1.04286,-0.38489 0.0394,-0.0603 0.048,-0.10114 0.046,-0.23235 -0.002,-0.19511 -0.0523,-0.33167 -0.34691,-0.91166 -0.25088,-0.49662 -0.37961,-0.77685 -0.61524,-1.33203 -0.43853,-1.03757 -0.51927,-1.20785 -0.67416,-1.42778 -0.21164,-0.29797 -0.34908,-0.42036 -0.91198,-0.81411 -0.50834,-0.3565 -0.84216,-0.63143 -1.07342,-0.88328 -0.43198,-0.4718 -0.8356,-1.15642 -1.06469,-1.80913 -0.15272,-0.43277 -0.21599,-0.72365 -0.32943,-1.53955 -0.15054,-1.07128 -0.25309,-1.41358 -0.59999,-1.98471 -0.23345,-0.38311 -0.28363,-0.49662 -0.28363,-0.63142 0,-0.13124 0.0589,-0.2217 0.28799,-0.43986 0.30109,-0.29089 0.384,-0.38668 0.49526,-0.57113 0.25091,-0.41502 0.35781,-0.83006 0.35781,-1.38345 0,-1.14046 -0.54762,-2.11243 -1.46832,-2.60727 -0.42761,-0.22702 -1.00795,-0.38844 -1.6363,-0.4523 -0.22909,-0.023 -0.82906,-0.023 -1.04724,0 -0.72653,0.0763 -1.2545,0.35474 -1.80211,0.95069 l -0.19854,0.21463 0.16798,0.0111 c 0.24436,0.0161 0.8487,-0.0161 1.11488,-0.0585 0.12655,-0.0195 0.3818,-0.0709 0.56726,-0.11352 0.77888,-0.18091 1.03632,-0.22348 1.3854,-0.22348 0.4538,0 0.82905,0.12771 1.1956,0.40795 0.35344,0.26959 0.58906,0.61723 0.69161,1.01452 0.0394,0.15964 0.0436,0.21994 0.0327,0.48421 -0.0111,0.32813 -0.037,0.4452 -0.1549,0.73253 -0.20291,0.4913 -0.53453,0.83716 -0.88143,0.92053 -0.25962,0.0603 -0.51925,-0.016 -1.11271,-0.3299 -0.57596,-0.3033 -0.88141,-0.41504 -1.36575,-0.49486 -0.42981,-0.0727 -0.65452,-0.0834 -1.67993,-0.0815 -1.06251,0 -1.42687,0.0161 -2.60719,0.11529 -1.12577,0.094 -1.30905,0.10469 -1.78902,0.10469 -1.33741,0 -2.23412,-0.23589 -3.54098,-0.93294 -0.50616,-0.2696 -0.65889,-0.36716 -0.72215,-0.45405 -0.0284,-0.0425 -0.12655,-0.21641 -0.216,-0.38666 -0.92942,-1.77189 -1.11923,-2.0415 -1.61012,-2.30044 -0.34253,-0.17914 -0.88362,-0.3565 -1.31997,-0.431 -0.24434,-0.0409 -0.79414,-0.0621 -0.99267,-0.0354 z"
       id="path2829"
       style="fill:#000000;stroke:none;stroke-width:0.00196714" /><path
       d="m 144.17564,158.79254 c -0.58035,0.0745 -1.0276,0.26072 -1.39196,0.57821 -0.15708,0.13657 -0.18326,0.17381 -0.43198,0.6066 -0.0742,0.12768 -0.14618,0.19331 -0.27054,0.24298 -0.13527,0.0567 -0.30326,0.0763 -0.84869,0.0976 -0.49963,0.0195 -0.68943,0.0461 -0.88797,0.12415 -0.29454,0.11883 -0.38399,0.29265 -0.30109,0.5853 0.13309,0.4647 0.39926,0.87797 0.6698,1.04469 0.21817,0.13302 0.40144,0.18092 1.15197,0.3033 0.71779,0.11529 1.10613,0.24299 1.39413,0.45406 0.31853,0.23588 0.54762,0.59416 0.68942,1.08016 0.0938,0.32279 0.12655,0.56579 0.20727,1.56968 0.072,0.89746 0.23563,1.69916 0.48435,2.37138 0.0481,0.12948 0.16581,0.41326 0.26181,0.62964 0.54325,1.22382 0.82033,1.98828 1.1825,3.26885 0.40144,1.42247 0.55198,2.22772 0.53017,2.80238 -0.0197,0.46647 -0.0785,0.67931 -0.37308,1.33202 -0.20945,0.46648 -0.26399,0.63142 -0.24655,0.74672 0.0502,0.36181 0.77889,0.32989 1.20651,-0.0533 0.30545,-0.27314 0.92943,-1.20609 1.12142,-1.67612 0.17236,-0.42033 0.168,-0.57288 -0.0349,-1.14755 -0.33381,-0.94357 -0.51708,-1.72577 -0.58035,-2.47778 -0.0393,-0.486 0.0218,-0.78575 0.18763,-0.91699 0.0982,-0.078 0.216,-0.0905 0.34908,-0.0391 0.3229,0.12769 0.46252,0.58708 0.6567,2.16562 0.13309,1.09082 0.21163,2.03793 0.21381,2.56294 0.002,0.78573 -0.10469,1.11918 -0.54325,1.69561 -0.22909,0.30154 -0.2989,0.46649 -0.26181,0.62611 0.0197,0.0815 0.13963,0.17738 0.27053,0.21461 0.3949,0.10992 1.32432,-0.0161 1.70831,-0.23235 0.192,-0.10636 0.26835,-0.25895 0.36654,-0.72896 0.14181,-0.674 0.23344,-1.45617 0.2749,-2.32881 0.0632,-1.38701 0.085,-1.73109 0.1309,-2.1018 0.10691,-0.85135 0.27926,-1.17415 0.69597,-1.30186 0.0611,-0.0177 0.24437,-0.0551 0.40581,-0.0815 0.73961,-0.1206 1.09305,-0.29619 2.43918,-1.20607 0.64799,-0.43811 0.86398,-0.56758 1.1214,-0.67221 0.31636,-0.13126 0.48655,-0.12771 0.63927,0.0111 0.10912,0.0976 0.17671,0.22525 0.35999,0.67399 0.26835,0.65272 0.45162,0.91344 0.92724,1.30187 0.34253,0.28023 0.53015,0.40261 1.52067,0.98793 0.42326,0.25185 0.87052,0.52321 0.9927,0.60659 0.40361,0.27136 0.57816,0.48421 0.70252,0.85134 0.19635,0.57644 0.2029,1.06599 0.0218,1.42247 -0.0982,0.1898 -0.19199,0.26606 -0.4669,0.37603 -0.25743,0.10291 -0.3338,0.16672 -0.3927,0.32635 -0.0415,0.11529 -0.0415,0.17205 0.002,0.26073 0.074,0.15076 0.2531,0.17737 0.99052,0.14366 0.73961,-0.032 0.94469,-0.0976 1.09959,-0.34941 0.0807,-0.12948 0.11346,-0.26251 0.19854,-0.80879 0.13964,-0.87972 0.16582,-1.22914 0.12,-1.56613 -0.10469,-0.76622 -0.43634,-1.2185 -1.30032,-1.78253 -0.48435,-0.31571 -0.65234,-0.48421 -0.75924,-0.76268 -0.11127,-0.28378 -0.12874,-0.63674 -0.0394,-0.77685 0.0983,-0.15609 0.20726,-0.10114 0.7309,0.36715 0.33816,0.30329 0.63705,0.54273 1.13887,0.90632 1.18249,0.86201 1.86538,1.55019 2.42172,2.44765 0.53672,0.87088 0.98178,1.89782 1.20869,2.79352 0.048,0.188 0.10032,0.36893 0.11782,0.40263 0.10912,0.21104 0.41888,0.32457 0.87705,0.32103 0.4669,-0.006 0.8967,-0.16318 1.04286,-0.38489 0.0394,-0.0603 0.048,-0.10114 0.046,-0.23235 -0.002,-0.19511 -0.0523,-0.33167 -0.34691,-0.91166 -0.25088,-0.49662 -0.37961,-0.77685 -0.61524,-1.33203 -0.43853,-1.03757 -0.51927,-1.20785 -0.67416,-1.42778 -0.21164,-0.29797 -0.34908,-0.42036 -0.91198,-0.81411 -0.50834,-0.3565 -0.84216,-0.63143 -1.07342,-0.88328 -0.43198,-0.4718 -0.8356,-1.15642 -1.06469,-1.80913 -0.15272,-0.43277 -0.21599,-0.72365 -0.32943,-1.53955 -0.15054,-1.07128 -0.25309,-1.41358 -0.59999,-1.98471 -0.23345,-0.38311 -0.28363,-0.49662 -0.28363,-0.63142 0,-0.13124 0.0589,-0.2217 0.28799,-0.43986 0.30109,-0.29089 0.384,-0.38668 0.49526,-0.57113 0.25091,-0.41502 0.35781,-0.83006 0.35781,-1.38345 0,-1.14046 -0.54762,-2.11243 -1.46832,-2.60727 -0.42761,-0.22702 -1.00795,-0.38844 -1.6363,-0.4523 -0.22909,-0.023 -0.82906,-0.023 -1.04724,0 -0.72653,0.0763 -1.2545,0.35474 -1.80211,0.95069 l -0.19854,0.21463 0.16798,0.0111 c 0.24436,0.0161 0.8487,-0.0161 1.11488,-0.0585 0.12655,-0.0195 0.3818,-0.0709 0.56726,-0.11352 0.77888,-0.18091 1.03632,-0.22348 1.3854,-0.22348 0.4538,0 0.82905,0.12771 1.1956,0.40795 0.35344,0.26959 0.58906,0.61723 0.69161,1.01452 0.0394,0.15964 0.0436,0.21994 0.0327,0.48421 -0.0111,0.32813 -0.037,0.4452 -0.1549,0.73253 -0.20291,0.4913 -0.53453,0.83716 -0.88143,0.92053 -0.25962,0.0603 -0.51925,-0.016 -1.11271,-0.3299 -0.57596,-0.3033 -0.88141,-0.41504 -1.36575,-0.49486 -0.42981,-0.0727 -0.65452,-0.0834 -1.67993,-0.0815 -1.06251,0 -1.42687,0.0161 -2.60719,0.11529 -1.12577,0.094 -1.30905,0.10469 -1.78902,0.10469 -1.33741,0 -2.23412,-0.23589 -3.54098,-0.93294 -0.50616,-0.2696 -0.65889,-0.36716 -0.72215,-0.45405 -0.0284,-0.0425 -0.12655,-0.21641 -0.216,-0.38666 -0.92942,-1.77189 -1.11923,-2.0415 -1.61012,-2.30044 -0.34253,-0.17914 -0.88362,-0.3565 -1.31997,-0.431 -0.24434,-0.0409 -0.79414,-0.0621 -0.99267,-0.0354 z"
       id="path2829-7"
       style="fill:#000000;stroke:none;stroke-width:0.00196714" /></g><g
     inkscape:groupmode="layer"
     id="layer2"
     inkscape:label="Layer 2"><text
       xml:space="preserve"
       transform="matrix(0.7374761,0,0,0.85106115,-148.15808,-149.27633)"
       id="text1139"
       style="font-style:normal;font-variant:normal;font-weight:normal;font-stretch:normal;font-size:12px;font-family:'FiraMono Nerd Font';-inkscape-font-specification:'FiraMono Nerd Font, Normal';font-variant-ligatures:normal;font-variant-caps:normal;font-variant-numeric:normal;font-variant-east-asian:normal;white-space:pre;shape-inside:url(#rect1141);display:inline;fill:#000000;fill-opacity:1"><tspan
         x="252.93945"
         y="297.65633"
         id="tspan1168"><tspan
           style="font-family:'DejaVu Sans';-inkscape-font-specification:'DejaVu Sans, @wght=300';font-variation-settings:'wght' 300"
           id="tspan1166">Milo's set</tspan></tspan></text><text
       xml:space="preserve"
       transform="matrix(0.7374761,0,0,0.85106115,-53.473529,-151.01562)"
       id="text1139-2"
       style="font-style:normal;font-variant:normal;font-weight:normal;font-stretch:normal;font-size:12px;font-family:'FiraMono Nerd Font';-inkscape-font-specification:'FiraMono Nerd Font, Normal';font-variant-ligatures:normal;font-variant-caps:normal;font-variant-numeric:normal;font-variant-east-asian:normal;white-space:pre;shape-inside:url(#rect1141-4);display:inline;fill:#000000;fill-opacity:1"><tspan
         x="252.93945"
         y="297.65633"
         id="tspan1172"><tspan
           style="font-family:'DejaVu Sans';-inkscape-font-specification:'DejaVu Sans, @wght=300';font-variation-settings:'wght' 300"
           id="tspan1170">Loki's set</tspan></tspan></text><ellipse
       id="path2398"
       style="fill:#000000;stroke:#000000;stroke-width:0.349798"
       cx="104.79191"
       cy="148.29294"
       rx="0.033190154"
       ry="0.03215833" /></g></svg>
