<?xml version="1.0" encoding="UTF-8" standalone="no"?>
<!-- Created with Inkscape (http://www.inkscape.org/) -->

<svg
   width="210mm"
   height="297mm"
   viewBox="0 0 210 297"
   version="1.1"
   id="svg5"
   inkscape:version="1.2 (dc2aedaf03, 2022-05-15)"
   sodipodi:docname="sets.svg"
   xml:space="preserve"
   xmlns:inkscape="http://www.inkscape.org/namespaces/inkscape"
   xmlns:sodipodi="http://sodipodi.sourceforge.net/DTD/sodipodi-0.dtd"
   xmlns="http://www.w3.org/2000/svg"
   xmlns:svg="http://www.w3.org/2000/svg"><sodipodi:namedview
     id="namedview7"
     pagecolor="#505050"
     bordercolor="#ffffff"
     borderopacity="1"
     inkscape:showpageshadow="0"
     inkscape:pageopacity="0"
     inkscape:pagecheckerboard="1"
     inkscape:deskcolor="#505050"
     inkscape:document-units="mm"
     showgrid="false"
     showguides="true"
     inkscape:lockguides="true"
     inkscape:zoom="1.0084456"
     inkscape:cx="472.01358"
     inkscape:cy="508.70371"
     inkscape:window-width="1344"
     inkscape:window-height="688"
     inkscape:window-x="10"
     inkscape:window-y="68"
     inkscape:window-maximized="1"
     inkscape:current-layer="layer1" /><defs
     id="defs2"><rect
       x="252.93894"
       y="286.73568"
       width="44.296513"
       height="17.017675"
       id="rect1141" /><rect
       x="260.73181"
       y="290.48309"
       width="76.499852"
       height="23.033917"
       id="rect1089" /><rect
       x="252.93893"
       y="286.73569"
       width="44.296513"
       height="17.017675"
       id="rect1141-4" /></defs><g
     inkscape:label="Layer 1"
     inkscape:groupmode="layer"
     id="layer1"><path
       style="fill:#e6e6e6;fill-opacity:0.994265;stroke-width:0.357745"
       id="path61"
       sodipodi:type="arc"
       sodipodi:cx="59.381664"
       sodipodi:cy="146.11954"
       sodipodi:rx="30.04258"
       sodipodi:ry="40.491219"
       sodipodi:start="6.0338946"
       sodipodi:end="6.031759"
       sodipodi:open="true"
       sodipodi:arc-type="arc"
       d="M 88.495557,136.12968 A 30.04258,40.491219 0 0 1 66.809212,185.35374 30.04258,40.491219 0 0 1 30.275702,156.15129 30.04258,40.491219 0 0 1 51.923037,106.89605 30.04258,40.491219 0 0 1 88.479662,136.0459"><desc
         id="desc223">Conjunto A
</desc></path><path
       style="fill:#0000ff;stroke-width:0.349798"
       id="path63"
       sodipodi:type="arc"
       sodipodi:cx="120.79839"
       sodipodi:cy="164.32872"
       sodipodi:rx="0.27249229"
       sodipodi:ry="1.8363074"
       sodipodi:start="6.0338946"
       sodipodi:end="0.025983761"
       sodipodi:open="true"
       sodipodi:arc-type="arc"
       d="m 121.06246,163.87567 a 0.27249229,1.8363074 0 0 1 0.008,0.50076" /><path
       style="fill:#e6e6e6;fill-opacity:0.994265;stroke-width:0.357745"
       id="path61-4"
       sodipodi:type="arc"
       sodipodi:cx="153.96899"
       sodipodi:cy="145.18422"
       sodipodi:rx="30.04258"
       sodipodi:ry="40.491219"
       sodipodi:start="6.0338946"
       sodipodi:end="6.031759"
       sodipodi:open="true"
       sodipodi:arc-type="arc"
       d="m 183.08289,135.19436 a 30.04258,40.491219 0 0 1 -21.68635,49.22406 30.04258,40.491219 0 0 1 -36.53351,-29.20245 30.04258,40.491219 0 0 1 21.64734,-49.25524 30.04258,40.491219 0 0 1 36.55662,29.14985"><desc
         id="desc223-8">Conjunto A
</desc></path><path
       d="m 50.695111,134.79971 c -1.051784,0.3129 -1.460925,0.68467 -1.899253,1.68909 -0.473406,1.0893 -0.648532,2.10687 -0.531781,3.03929 0.175383,1.31104 0.601933,2.49778 1.496001,4.17402 l 0.654421,1.22618 -0.04096,0.5415 c -0.0233,0.30005 -0.11112,0.88698 -0.192793,1.2979 -0.08757,0.41092 -0.175382,1.037 -0.210459,1.38277 -0.03507,0.37177 -0.105229,0.75639 -0.175383,0.93927 -0.204571,0.51523 -0.613455,1.08273 -1.151124,1.60423 l -0.520004,0.50236 -0.374064,1.03043 c -0.578635,1.60451 -0.648532,1.83255 -0.771427,2.57609 -0.05838,0.37833 -0.122641,0.73038 -0.140307,0.78268 -0.03507,0.0977 0.374064,0.65866 0.55508,0.76953 0.146194,0.0848 0.374064,-0.0326 0.508482,-0.25432 0.07016,-0.12373 0.09934,-0.31947 0.105229,-0.72381 0,-0.50236 0.02918,-0.61952 0.274723,-1.29791 0.151828,-0.41091 0.338988,-0.82183 0.420663,-0.91298 0.321321,-0.37177 0.74224,-0.58037 1.788135,-0.88041 0.560968,-0.15659 1.098638,-0.32605 1.197979,-0.36519 0.146195,-0.0586 0.181272,-0.0523 0.245536,0.0392 0.105229,0.15659 0.09345,0.33261 -0.04096,1.12159 -0.06427,0.36519 -0.11675,0.79554 -0.11675,0.95212 0,0.58694 0.65442,1.70225 1.741281,2.97386 l 0.449851,0.52836 0.695386,-0.0194 c 0.672086,-0.0194 0.695385,-0.026 0.812393,-0.18918 0.09934,-0.15658 0.105229,-0.19574 0.03507,-0.35233 -0.116751,-0.26747 -0.35051,-0.43035 -0.683608,-0.47608 -0.286245,-0.0457 -0.321322,-0.0718 -0.794727,-0.6458 -0.520002,-0.62609 -0.601933,-0.79554 -0.53767,-1.14788 0.04685,-0.27404 0.601935,-1.18045 1.06945,-1.75453 0.262947,-0.31948 0.449851,-0.62609 0.601935,-1.00443 0.20457,-0.48921 0.245535,-0.54779 0.391475,-0.55436 1.864176,-0.0586 2.40159,-0.11087 2.723169,-0.24147 l 0.333097,-0.13688 0.514117,0.16317 c 1.379249,0.42406 1.26813,0.36519 1.285541,0.64552 0.03507,0.45006 -0.221981,2.25004 -0.403253,2.84355 -0.152084,0.50207 -0.169494,0.65209 -0.169494,1.34362 0,0.69781 0.0118,0.80211 0.122639,0.9587 0.117011,0.16317 0.140308,0.16946 0.718687,0.16946 0.672085,0 0.73635,-0.0326 0.73635,-0.39778 0,-0.18916 -0.04096,-0.28061 -0.175382,-0.40434 -0.09345,-0.0914 -0.227868,-0.18917 -0.292134,-0.2086 -0.239648,-0.0848 -0.09934,-0.54121 0.63701,-2.11316 0.940922,-2.02171 1.063563,-2.15887 1.858289,-2.15887 0.280612,0 0.560968,-0.0392 0.724573,-0.11088 l 0.274724,-0.10429 0.374064,0.30004 c 0.409141,0.31947 0.747873,0.71095 0.747873,0.85441 0,0.12373 0.391475,0.50863 1.870066,1.83911 0.689497,0.62609 1.402549,1.27161 1.577675,1.43478 0.175383,0.16973 0.426552,0.35862 0.560969,0.42377 0.128528,0.0652 0.356398,0.24147 0.502594,0.38491 l 0.268833,0.2609 h 0.625491 c 0.607821,0 0.625232,-0.007 0.794726,-0.18917 0.22198,-0.25432 0.216347,-0.40434 -0.03508,-0.65209 -0.186905,-0.1826 -0.245535,-0.20232 -0.578634,-0.20232 H 70.78552 l -0.467515,-0.54122 c -1.022596,-1.17388 -1.490113,-1.81312 -1.875699,-2.56979 -0.607822,-1.18045 -0.584268,-1.04358 -0.607822,-3.18932 l -0.01741,-1.8914 0.198683,-0.43692 c 0.216092,-0.47607 0.578379,-0.89356 1.016708,-1.18045 0.22198,-0.15003 0.379696,-0.18917 0.858991,-0.23489 0.32132,-0.0326 0.607823,-0.0718 0.637011,-0.0912 0.0233,-0.0197 0.169493,-0.27404 0.321321,-0.56751 0.198682,-0.37176 0.268836,-0.57379 0.245281,-0.67839 -0.0174,-0.0848 -0.204573,-0.38462 -0.409143,-0.67181 -0.210459,-0.28689 -0.397363,-0.60007 -0.420661,-0.69123 -0.05275,-0.24147 -0.53767,-0.71096 -0.929145,-0.89356 l -0.32721,-0.1566 0.01741,-0.65209 c 0.01741,-0.63923 0.01181,-0.65209 -0.11112,-0.63923 -0.08167,0.0132 -0.134418,-0.026 -0.146196,-0.0977 -0.01741,-0.0848 -0.19868,0.0782 -0.695385,0.61952 -0.590156,0.64581 -0.724573,0.76297 -1.221278,1.01729 -0.426551,0.22832 -0.677719,0.41748 -1.063561,0.80868 -0.280101,0.28118 -0.69513,0.62038 -0.923,0.75726 -0.379697,0.23488 -0.443961,0.25431 -0.882291,0.24775 -0.257056,0 -0.777315,-0.0586 -1.151123,-0.13031 -0.374065,-0.0718 -0.946555,-0.16316 -1.268133,-0.20232 -0.321321,-0.0392 -1.308841,-0.19574 -2.191387,-0.35862 -2.436667,-0.43034 -2.623827,-0.45663 -3.886071,-0.45006 -0.835691,0 -1.472702,0.0457 -2.243873,0.15002 l -1.075329,0.14345 -0.31569,-0.1826 c -0.391478,-0.22175 -1.063564,-0.90013 -1.262246,-1.27818 -0.333098,-0.63266 -0.800615,-2.53694 -0.800615,-3.24789 0.0059,-0.71096 0.303911,-1.77396 0.601933,-2.13259 0.274724,-0.33262 0.958332,-0.56751 1.355695,-0.4695 0.21046,0.0523 0.455739,0.22832 0.637011,0.45007 0.169494,0.2086 0.420663,0.1826 0.531781,-0.0588 0.11112,-0.24146 0.11112,-0.67181 0.0059,-0.90642 -0.11112,-0.24145 -0.555082,-0.68466 -0.847215,-0.84783 -0.280357,-0.16317 -0.917367,-0.18288 -1.378995,-0.0394 z"
       id="path2769"
       style="stroke-width:0.00270487" /><path
       d="m 145.01348,136.70872 c -0.58035,0.0745 -1.0276,0.26072 -1.39196,0.57821 -0.15708,0.13657 -0.18326,0.17381 -0.43198,0.6066 -0.0742,0.12768 -0.14618,0.19331 -0.27054,0.24298 -0.13527,0.0567 -0.30326,0.0763 -0.84869,0.0976 -0.49963,0.0195 -0.68943,0.0461 -0.88797,0.12415 -0.29454,0.11883 -0.38399,0.29265 -0.30109,0.5853 0.13309,0.4647 0.39926,0.87797 0.6698,1.04469 0.21817,0.13302 0.40144,0.18092 1.15197,0.3033 0.71779,0.11529 1.10613,0.24299 1.39413,0.45406 0.31853,0.23588 0.54762,0.59416 0.68942,1.08016 0.0938,0.32279 0.12655,0.56579 0.20727,1.56968 0.072,0.89746 0.23563,1.69916 0.48435,2.37138 0.0481,0.12948 0.16581,0.41326 0.26181,0.62964 0.54325,1.22382 0.82033,1.98828 1.1825,3.26885 0.40144,1.42247 0.55198,2.22772 0.53017,2.80238 -0.0197,0.46647 -0.0785,0.67931 -0.37308,1.33202 -0.20945,0.46648 -0.26399,0.63142 -0.24655,0.74672 0.0502,0.36181 0.77889,0.32989 1.20651,-0.0533 0.30545,-0.27314 0.92943,-1.20609 1.12142,-1.67612 0.17236,-0.42033 0.168,-0.57288 -0.0349,-1.14755 -0.33381,-0.94357 -0.51708,-1.72577 -0.58035,-2.47778 -0.0393,-0.486 0.0218,-0.78575 0.18763,-0.91699 0.0982,-0.078 0.216,-0.0905 0.34908,-0.0391 0.3229,0.12769 0.46252,0.58708 0.6567,2.16562 0.13309,1.09082 0.21163,2.03793 0.21381,2.56294 0.002,0.78573 -0.10469,1.11918 -0.54325,1.69561 -0.22909,0.30154 -0.2989,0.46649 -0.26181,0.62611 0.0197,0.0815 0.13963,0.17738 0.27053,0.21461 0.3949,0.10992 1.32432,-0.0161 1.70831,-0.23235 0.192,-0.10636 0.26835,-0.25895 0.36654,-0.72896 0.14181,-0.674 0.23344,-1.45617 0.2749,-2.32881 0.0632,-1.38701 0.085,-1.73109 0.1309,-2.1018 0.10691,-0.85135 0.27926,-1.17415 0.69597,-1.30186 0.0611,-0.0177 0.24437,-0.0551 0.40581,-0.0815 0.73961,-0.1206 1.09305,-0.29619 2.43918,-1.20607 0.64799,-0.43811 0.86398,-0.56758 1.1214,-0.67221 0.31636,-0.13126 0.48655,-0.12771 0.63927,0.0111 0.10912,0.0976 0.17671,0.22525 0.35999,0.67399 0.26835,0.65272 0.45162,0.91344 0.92724,1.30187 0.34253,0.28023 0.53015,0.40261 1.52067,0.98793 0.42326,0.25185 0.87052,0.52321 0.9927,0.60659 0.40361,0.27136 0.57816,0.48421 0.70252,0.85134 0.19635,0.57644 0.2029,1.06599 0.0218,1.42247 -0.0982,0.1898 -0.19199,0.26606 -0.4669,0.37603 -0.25743,0.10291 -0.3338,0.16672 -0.3927,0.32635 -0.0415,0.11529 -0.0415,0.17205 0.002,0.26073 0.074,0.15076 0.2531,0.17737 0.99052,0.14366 0.73961,-0.032 0.94469,-0.0976 1.09959,-0.34941 0.0807,-0.12948 0.11346,-0.26251 0.19854,-0.80879 0.13964,-0.87972 0.16582,-1.22914 0.12,-1.56613 -0.10469,-0.76622 -0.43634,-1.2185 -1.30032,-1.78253 -0.48435,-0.31571 -0.65234,-0.48421 -0.75924,-0.76268 -0.11127,-0.28378 -0.12874,-0.63674 -0.0394,-0.77685 0.0983,-0.15609 0.20726,-0.10114 0.7309,0.36715 0.33816,0.30329 0.63705,0.54273 1.13887,0.90632 1.18249,0.86201 1.86538,1.55019 2.42172,2.44765 0.53672,0.87088 0.98178,1.89782 1.20869,2.79352 0.048,0.188 0.10032,0.36893 0.11782,0.40263 0.10912,0.21104 0.41888,0.32457 0.87705,0.32103 0.4669,-0.006 0.8967,-0.16318 1.04286,-0.38489 0.0394,-0.0603 0.048,-0.10114 0.046,-0.23235 -0.002,-0.19511 -0.0523,-0.33167 -0.34691,-0.91166 -0.25088,-0.49662 -0.37961,-0.77685 -0.61524,-1.33203 -0.43853,-1.03757 -0.51927,-1.20785 -0.67416,-1.42778 -0.21164,-0.29797 -0.34908,-0.42036 -0.91198,-0.81411 -0.50834,-0.3565 -0.84216,-0.63143 -1.07342,-0.88328 -0.43198,-0.4718 -0.8356,-1.15642 -1.06469,-1.80913 -0.15272,-0.43277 -0.21599,-0.72365 -0.32943,-1.53955 -0.15054,-1.07128 -0.25309,-1.41358 -0.59999,-1.98471 -0.23345,-0.38311 -0.28363,-0.49662 -0.28363,-0.63142 0,-0.13124 0.0589,-0.2217 0.28799,-0.43986 0.30109,-0.29089 0.384,-0.38668 0.49526,-0.57113 0.25091,-0.41502 0.35781,-0.83006 0.35781,-1.38345 0,-1.14046 -0.54762,-2.11243 -1.46832,-2.60727 -0.42761,-0.22702 -1.00795,-0.38844 -1.6363,-0.4523 -0.22909,-0.023 -0.82906,-0.023 -1.04724,0 -0.72653,0.0763 -1.2545,0.35474 -1.80211,0.95069 l -0.19854,0.21463 0.16798,0.0111 c 0.24436,0.0161 0.8487,-0.0161 1.11488,-0.0585 0.12655,-0.0195 0.3818,-0.0709 0.56726,-0.11352 0.77888,-0.18091 1.03632,-0.22348 1.3854,-0.22348 0.4538,0 0.82905,0.12771 1.1956,0.40795 0.35344,0.26959 0.58906,0.61723 0.69161,1.01452 0.0394,0.15964 0.0436,0.21994 0.0327,0.48421 -0.0111,0.32813 -0.037,0.4452 -0.1549,0.73253 -0.20291,0.4913 -0.53453,0.83716 -0.88143,0.92053 -0.25962,0.0603 -0.51925,-0.016 -1.11271,-0.3299 -0.57596,-0.3033 -0.88141,-0.41504 -1.36575,-0.49486 -0.42981,-0.0727 -0.65452,-0.0834 -1.67993,-0.0815 -1.06251,0 -1.42687,0.0161 -2.60719,0.11529 -1.12577,0.094 -1.30905,0.10469 -1.78902,0.10469 -1.33741,0 -2.23412,-0.23589 -3.54098,-0.93294 -0.50616,-0.2696 -0.65889,-0.36716 -0.72215,-0.45405 -0.0284,-0.0425 -0.12655,-0.21641 -0.216,-0.38666 -0.92942,-1.77189 -1.11923,-2.0415 -1.61012,-2.30044 -0.34253,-0.17914 -0.88362,-0.3565 -1.31997,-0.431 -0.24434,-0.0409 -0.79414,-0.0621 -0.99267,-0.0354 z"
       id="path2829"
       style="fill:#000000;stroke:none;stroke-width:0.00196714" /></g><g
     inkscape:groupmode="layer"
     id="layer2"
     inkscape:label="Layer 2"><text
       xml:space="preserve"
       transform="matrix(0.7374761,0,0,0.85106115,-137.9645,-149.76521)"
       id="text1139"
       style="font-style:normal;font-variant:normal;font-weight:normal;font-stretch:normal;font-size:12px;font-family:'FiraMono Nerd Font';-inkscape-font-specification:'FiraMono Nerd Font, Normal';font-variant-ligatures:normal;font-variant-caps:normal;font-variant-numeric:normal;font-variant-east-asian:normal;white-space:pre;shape-inside:url(#rect1141);display:inline;fill:#000000;fill-opacity:1"><tspan
         x="252.93945"
         y="297.65633"
         id="tspan2864"><tspan
           style="font-family:'DejaVu Sans';-inkscape-font-specification:'DejaVu Sans, @wght=300';font-variation-settings:'wght' 300"
           id="tspan2862">x set</tspan></tspan></text><text
       xml:space="preserve"
       transform="matrix(0.7374761,0,0,0.85106115,-41.974962,-150.75506)"
       id="text1139-2"
       style="font-style:normal;font-variant:normal;font-weight:normal;font-stretch:normal;font-size:12px;font-family:'FiraMono Nerd Font';-inkscape-font-specification:'FiraMono Nerd Font, Normal';font-variant-ligatures:normal;font-variant-caps:normal;font-variant-numeric:normal;font-variant-east-asian:normal;white-space:pre;shape-inside:url(#rect1141-4);display:inline;fill:#000000;fill-opacity:1"><tspan
         x="252.93945"
         y="297.65633"
         id="tspan2868"><tspan
           style="font-family:'DejaVu Sans';-inkscape-font-specification:'DejaVu Sans, @wght=300';font-variation-settings:'wght' 300"
           id="tspan2866">yset</tspan></tspan></text><ellipse
       id="path2398"
       style="fill:#000000;stroke:#000000;stroke-width:0.349798"
       cx="104.79191"
       cy="148.29294"
       rx="0.033190154"
       ry="0.03215833" /></g></svg>
